<?xml version="1.0" encoding="UTF-8"?>
<svg width="25px" height="25px" viewBox="0 0 25 25" version="1.1" xmlns="http://www.w3.org/2000/svg" xmlns:xlink="http://www.w3.org/1999/xlink">
    <title>gearshape.fill</title>
    <g id="页面-1" stroke="none" stroke-width="1" fill="none" fill-rule="evenodd">
        <g id="gearshape.fill" fill="#000000" fill-rule="nonzero">
            <rect id="矩形" opacity="0" x="0" y="0" width="24.4922" height="24.5039"></rect>
            <path d="M11.168,24.4922 L13.3242,24.4922 C13.9336,24.4922 14.3789,24.1289 14.5078,23.5312 L15.1172,20.9531 C15.5742,20.8008 16.0195,20.625 16.4062,20.4375 L18.668,21.8203 C19.1719,22.1367 19.7461,22.0898 20.168,21.668 L21.6797,20.168 C22.1016,19.7461 22.1602,19.1367 21.8203,18.6328 L20.4375,16.3945 C20.6367,15.9844 20.8125,15.5625 20.9414,15.1406 L23.543,14.5195 C24.1406,14.3906 24.4922,13.9453 24.4922,13.3359 L24.4922,11.2148 C24.4922,10.6172 24.1406,10.1719 23.543,10.043 L20.9648,9.42188 C20.8125,8.94141 20.625,8.50781 20.4609,8.14453 L21.8438,5.87109 C22.1719,5.36719 22.1367,4.79297 21.7031,4.37109 L20.168,2.85938 C19.7344,2.46094 19.2188,2.39062 18.7031,2.68359 L16.4062,4.10156 C16.0312,3.90234 15.5977,3.72656 15.1172,3.57422 L14.5078,0.960938 C14.3789,0.363281 13.9336,0 13.3242,0 L11.168,0 C10.5586,0 10.1133,0.363281 9.97266,0.960938 L9.36328,3.55078 C8.90625,3.70312 8.46094,3.87891 8.0625,4.08984 L5.78906,2.68359 C5.27344,2.39062 4.74609,2.44922 4.3125,2.85938 L2.78906,4.37109 C2.35547,4.79297 2.30859,5.36719 2.64844,5.87109 L4.01953,8.14453 C3.86719,8.50781 3.67969,8.94141 3.52734,9.42188 L0.949219,10.043 C0.351562,10.1719 0,10.6172 0,11.2148 L0,13.3359 C0,13.9453 0.351562,14.3906 0.949219,14.5195 L3.55078,15.1406 C3.67969,15.5625 3.85547,15.9844 4.04297,16.3945 L2.67188,18.6328 C2.32031,19.1367 2.39062,19.7461 2.8125,20.168 L4.3125,21.668 C4.73438,22.0898 5.32031,22.1367 5.82422,21.8203 L8.07422,20.4375 C8.47266,20.625 8.90625,20.8008 9.36328,20.9531 L9.97266,23.5312 C10.1133,24.1289 10.5586,24.4922 11.168,24.4922 Z M12.2461,16.3828 C9.97266,16.3828 8.10938,14.5078 8.10938,12.2344 C8.10938,9.97266 9.97266,8.10938 12.2461,8.10938 C14.5195,8.10938 16.3828,9.97266 16.3828,12.2344 C16.3828,14.5078 14.5195,16.3828 12.2461,16.3828 Z" id="形状" fill-opacity="0.85"></path>
        </g>
    </g>
</svg>