<?xml version="1.0" encoding="UTF-8"?>
<svg width="25px" height="26px" viewBox="0 0 25 26" version="1.1" xmlns="http://www.w3.org/2000/svg" xmlns:xlink="http://www.w3.org/1999/xlink">
    <title>paperplane.fill</title>
    <g id="页面-1" stroke="none" stroke-width="1" fill="none" fill-rule="evenodd">
        <g id="paperplane.fill" fill="#000000" fill-rule="nonzero">
            <rect id="矩形" opacity="0" x="0" y="0" width="24.5508" height="25.6758"></rect>
            <path d="M14.6719,25.6758 C15.5156,25.6758 16.1133,24.9492 16.5469,23.8242 L24.2227,3.77344 C24.4336,3.23438 24.5508,2.75391 24.5508,2.35547 C24.5508,1.59375 24.082,1.125 23.3203,1.125 C22.9219,1.125 22.4414,1.24219 21.9023,1.45312 L1.74609,9.17578 C0.761719,9.55078 0,10.1484 0,11.0039 C0,12.082 0.820312,12.4453 1.94531,12.7852 L8.27344,14.707 C9.02344,14.9414 9.44531,14.918 9.94922,14.4492 L22.8047,2.4375 C22.957,2.29688 23.1328,2.32031 23.25,2.42578 C23.3672,2.54297 23.3789,2.71875 23.2383,2.87109 L11.2734,15.7734 C10.8164,16.2539 10.7812,16.6523 11.0039,17.4375 L12.8672,23.625 C13.2188,24.8086 13.582,25.6758 14.6719,25.6758 Z" id="路径" fill-opacity="0.85"></path>
        </g>
    </g>
</svg>