<?xml version="1.0" encoding="UTF-8"?>
<svg width="25px" height="22px" viewBox="0 0 25 22" version="1.1" xmlns="http://www.w3.org/2000/svg" xmlns:xlink="http://www.w3.org/1999/xlink">
    <title>chart.bar.xaxis</title>
    <g id="页面-1" stroke="none" stroke-width="1" fill="none" fill-rule="evenodd">
        <g id="chart.bar.xaxis" fill="#000000" fill-rule="nonzero">
            <rect id="矩形" opacity="0" x="0" y="0" width="24.4453" height="21.8086"></rect>
            <path d="M0,20.8711 C0,21.3984 0.433594,21.8086 0.9375,21.8086 L23.4961,21.8086 C24.0117,21.8086 24.4453,21.3984 24.4453,20.8711 C24.4453,20.3555 24.0117,19.9336 23.4961,19.9336 L0.9375,19.9336 C0.433594,19.9336 0,20.3555 0,20.8711 Z" id="路径" fill-opacity="0.85"></path>
            <path d="M18.8789,17.2617 C18.8789,17.8711 19.2656,18.2344 19.9102,18.2344 L22.4648,18.2344 C23.0977,18.2344 23.4961,17.8711 23.4961,17.2617 L23.4961,10.0312 C23.4961,9.42188 23.0977,9.04688 22.4648,9.04688 L19.9102,9.04688 C19.2656,9.04688 18.8789,9.42188 18.8789,10.0312 L18.8789,17.2617 Z" id="路径" fill-opacity="0.85"></path>
            <path d="M12.9023,17.2617 C12.9023,17.8711 13.2891,18.2344 13.9219,18.2344 L16.4883,18.2344 C17.1094,18.2344 17.5078,17.8711 17.5078,17.2617 L17.5078,5.02734 C17.5078,4.40625 17.1094,4.04297 16.4883,4.04297 L13.9219,4.04297 C13.2891,4.04297 12.9023,4.40625 12.9023,5.02734 L12.9023,17.2617 Z" id="路径" fill-opacity="0.85"></path>
            <path d="M6.91406,17.2617 C6.91406,17.8711 7.3125,18.2344 7.94531,18.2344 L10.5,18.2344 C11.1328,18.2344 11.5312,17.8711 11.5312,17.2617 L11.5312,2.49609 C11.5312,1.88672 11.1328,1.52344 10.5,1.52344 L7.94531,1.52344 C7.3125,1.52344 6.91406,1.88672 6.91406,2.49609 L6.91406,17.2617 Z" id="路径" fill-opacity="0.85"></path>
            <path d="M0.9375,17.2617 C0.9375,17.8711 1.32422,18.2344 1.96875,18.2344 L4.52344,18.2344 C5.14453,18.2344 5.54297,17.8711 5.54297,17.2617 L5.54297,7.57031 C5.54297,6.97266 5.14453,6.58594 4.52344,6.58594 L1.96875,6.58594 C1.32422,6.58594 0.9375,6.97266 0.9375,7.57031 L0.9375,17.2617 Z" id="路径" fill-opacity="0.85"></path>
        </g>
    </g>
</svg>