<?xml version="1.0" encoding="UTF-8"?>
<svg width="25px" height="23px" viewBox="0 0 25 23" version="1.1" xmlns="http://www.w3.org/2000/svg" xmlns:xlink="http://www.w3.org/1999/xlink">
    <title>scale.3d</title>
    <g id="页面-1" stroke="none" stroke-width="1" fill="none" fill-rule="evenodd">
        <g id="scale.3d" fill="#000000" fill-rule="nonzero">
            <rect id="矩形" opacity="0" x="0" y="9.99999994e-08" width="24.5156" height="22.2305"></rect>
            <path d="M2.98828,17.9062001 L3.9375,19.5234001 L12.293,15.3281001 L20.6484,19.5234001 L21.5977,17.9062001 L13.2422,13.7109001 L13.2422,3.8203101 L11.3555,3.8203101 L11.3555,13.7109001 L2.98828,17.9062001 Z M0.0234375,19.5820001 C0.0234375,20.0625001 0.222656,20.4141001 0.644531,20.6484001 L2.98828,22.0195001 C3.29297,22.2070001 3.50391,22.2422001 3.91406,22.0078001 L6.19922,20.6836001 C6.62109,20.4492001 6.70312,20.2500001 6.69141,19.8633001 L6.70312,17.1445001 C6.70312,16.6758001 6.49219,16.3359001 6.09375,16.1016001 L3.73828,14.7305001 C3.43359,14.5664001 3.17578,14.5078001 2.77734,14.7305001 L0.457031,16.0781001 C0.0585938,16.3008001 0,16.5352001 0,16.8633001 L0.0234375,19.5820001 Z M17.8242,19.8750001 C17.8125,20.2617001 17.8945,20.4609001 18.3164,20.6953001 L20.6016,22.0195001 C21.0117,22.2539001 21.2227,22.2188001 21.5273,22.0312001 L23.8711,20.6602001 C24.293,20.4258001 24.4922,20.0742001 24.4922,19.5938001 L24.5156,16.8750001 C24.5156,16.5469001 24.457,16.3125001 24.0586,16.0898001 L21.7383,14.7422001 C21.3398,14.5195001 21.082,14.5781001 20.7773,14.7422001 L18.4219,16.1133001 C18.0234,16.3477001 17.8125,16.6875001 17.8125,17.1562001 L17.8242,19.8750001 Z M9.30469,5.8242201 L11.6719,7.1835901 C12.0703,7.4062501 12.457,7.4062501 12.8555,7.1835901 L15.2227,5.8242201 C15.5508,5.6367201 15.6914,5.4609401 15.6914,4.9804701 L15.6914,2.3320301 C15.6914,1.8632801 15.5508,1.6992201 15.2461,1.5234401 L12.8789,0.1757811 C12.457,-0.0585937 12.0586,-0.0585937 11.6484,0.1757811 L9.28125,1.5234401 C8.98828,1.6875001 8.82422,1.8632801 8.82422,2.3320301 L8.82422,4.9804701 C8.82422,5.4609401 9,5.6484401 9.30469,5.8242201 Z" id="形状" fill-opacity="0.85"></path>
        </g>
    </g>
</svg>